# xmcd
#
# Track frame offsets: 
#        150
#        20414
#        38560
#        64435
#        90173
#        115747
#        134867
#        155348
#        171986
#        193218
#        212630
#        232890
#        251409
#
# Disc length: 3552 seconds
#
# Revision: 0
# Processed by: cddbd v1.5.2PL0 Copyright (c) Steve Scherf et al.
# Submitted via: ExactAudioCopyFreeDBPlugin 1.0
#
DISCID=ae0dde0d
DTITLE=Various Artist - Defqon.1 2011 [CD3 - Mixed By Pavelow)
DYEAR=2011
DGENRE=Dance
TTITLE0=Brainless - Stoemp
TTITLE1=Felguk - Whatever Clever (Dirtyloud Remix)
TTITLE2=Mord Fustang - Lick The Rainbow
TTITLE3=Phunk Investigation - Paranoid Symphony
TTITLE4=Wolfgang Gartner - Illmerica
TTITLE5=Aaren San - Apes From Space (Dirtyloud Remix)
TTITLE6=Masterflow - Rules Are For Fools
TTITLE7=Dirtyloud Feat. Sirreal - Needle
TTITLE8=Noisia - Alpha Centauri (Excision and Datsik Remix)
TTITLE9=Noisia - Friendly Intentions
TTITLE10=Pavelow - Soundflip
TTITLE11=Pavelow - Beautifull and Rich
TTITLE12=Pavelow - Restless
EXTD=
EXTT0=
EXTT1=
EXTT2=
EXTT3=
EXTT4=
EXTT5=
EXTT6=
EXTT7=
EXTT8=
EXTT9=
EXTT10=
EXTT11=
EXTT12=
PLAYORDER=
